# xmcd
#
# Track frame offsets: 
#        150
#        30180
#        39542
#        58675
#        72875
#        108535
#        120375
#        134065
#        172542
#        191267
#        220642
#        254070
#        268510
#        278770
#
# Disc length: 3899 seconds
#
# Revision: 9
# Processed by: cddbd v1.5.2PL0 Copyright (c) Steve Scherf et al.
# Submitted via: ExactAudioCopy v1.0b3
#
DISCID=c20f390e
DTITLE=Gary Moore - Blues For Greeny
DYEAR=1995
DGENRE=Blues
TTITLE0=If You Be My Baby
TTITLE1=Long Grey Mare
TTITLE2=Merry Go Round
TTITLE3=I Loved Another Woman
TTITLE4=Need Your Love So Bad
TTITLE5=The Same Way
TTITLE6=The Supernatural
TTITLE7=Driftin'
TTITLE8=Showbiz Blues
TTITLE9=Love That Burns
TTITLE10=Looking For Somebody
TTITLE11=The World Keeps On Turnin'
TTITLE12=The Same Way [Acoustic Version]
TTITLE13=Stop Messin' Around
EXTD=
EXTT0=
EXTT1=
EXTT2=
EXTT3=
EXTT4=
EXTT5=
EXTT6=
EXTT7=
EXTT8=
EXTT9=
EXTT10=
EXTT11=
EXTT12=
EXTT13=
PLAYORDER=
